<svg xmlns="http://www.w3.org/2000/svg">
  <symbol id="plus" viewBox="0 0 512 512" xmlns="http://www.w3.org/2000/svg">
    <path class="ast0" d="M95.468 416.532c41.078 41.077 97.838 66.489 160.532 66.489s119.448-25.412 160.532-66.489c41.078-41.078 66.489-97.839 66.489-160.532S457.61 136.546 416.532 95.468C375.448 54.388 318.693 28.976 256 28.976S136.546 54.388 95.468 95.468C54.385 136.546 28.973 193.307 28.973 256s25.412 119.454 66.495 160.532M256 0c141.382 0 256 114.615 256 256 0 141.382-114.618 256-256 256C114.612 512 0 397.382 0 256 0 114.615 114.612 0 256 0z"/>
    <path class="ast1" d="M112.088 301.73v-91.461c0-6.092 4.987-11.076 11.076-11.076h76.027v-76.028c0-6.091 4.987-11.076 11.076-11.076h91.465c6.095 0 11.076 4.984 11.076 11.076v76.028h76.027c6.095 0 11.076 4.984 11.076 11.076v91.461c0 6.096-4.981 11.082-11.076 11.082h-76.027v76.021c0 6.09-4.981 11.076-11.076 11.076h-91.465c-6.089 0-11.076-4.986-11.076-11.076v-76.021h-76.027c-6.089.001-11.076-4.986-11.076-11.082"/>
  </symbol>
  <symbol id="calendar" viewBox="0 0 32 32" xmlns="http://www.w3.org/2000/svg">
    <g fill="#455B65">
      <path d="M30.667 6.046H24.5v-2.03c0-1.103-.897-2-2-2s-2 .897-2 2v2.03h-9v-2.03c0-1.103-.897-2-2-2s-2 .897-2 2v2.03H1.333a1 1 0 0 0-1 1v21.938a1 1 0 0 0 1 1h29.333a1 1 0 0 0 1-1V7.046a.999.999 0 0 0-.999-1zm-9.167 0v-2.03a1 1 0 1 1 2 0v4.156a1 1 0 1 1-2 0V6.046zm-13 0v-2.03a1 1 0 1 1 2 0v4.156a1 1 0 1 1-2 0V6.046zm21.167 21.938H2.333V11.421h27.333v16.563z"/>
      <path d="M7.25 15.625a1 1 0 0 0 1 1h15.5a1 1 0 1 0 0-2H8.25a1 1 0 0 0-1 1zM23.75 18.75H8.25a1 1 0 1 0 0 2h15.5a1 1 0 1 0 0-2zM23.75 22.875H8.25a1 1 0 1 0 0 2h15.5a1 1 0 1 0 0-2z"/>
    </g>
  </symbol>
</svg>
